# xmcd
#
# Track frame offsets: 
#        150
#        18299
#        35304
#        52215
#        75106
#        115190
#        146207
#        160203
#        180460
#        196392
#
# Disc length: 2860 seconds
#
# Revision: 0
# Processed by: cddbd v1.5.2PL0 Copyright (c) Steve Scherf et al.
# Submitted via: ExactAudioCopy v0.95b3
#
DISCID=7b0b2a0a
DTITLE=The Rolling Stones  - Get Yer Ya-Ya's Out! (MFSL 1-169)  FLAC
DYEAR=1900
DGENRE=
TTITLE0=Jumpin' Jack Flash
TTITLE1=Carol
TTITLE2=Stray Cat Blues
TTITLE3=Love in Vain
TTITLE4=Midnight Rambler
TTITLE5=Sympathy for the Devil
TTITLE6=Live With Me
TTITLE7=Little Queenie
TTITLE8=Honky Tonk Woman
TTITLE9=Street Fighting Man
EXTD=
EXTT0=
EXTT1=
EXTT2=
EXTT3=
EXTT4=
EXTT5=
EXTT6=
EXTT7=
EXTT8=
EXTT9=
PLAYORDER=
